<?xml version="1.0" standalone="yes"?>
<svg xmlns="http://www.w3.org/2000/svg" width="1024" height="1024">
<path style="fill:#ecebe5; stroke:none;" d="M0 0L0 1024L1024 1024L1024 0L0 0z"/>
<path style="fill:#3a2825; stroke:none;" d="M80 155.728C71.8975 158.044 62.2271 161.494 55.1844 166.148C38.7343 177.02 27.9573 193.232 25.2091 213C23.864 222.676 25 233.234 25 243L25 293L25 689L25 782C25 791.125 24.037 800.851 25.1289 809.911C26.6359 822.415 33.4518 836.575 42.2901 845.424C58.8159 861.971 80.2912 863.813 102 867.325C122.227 870.597 143.468 869 164 869L268 869L737 869L870 869C901.052 869 933.007 870.929 962.729 860.594C987.954 851.823 1002.58 828.444 1006.74 803C1009.23 787.779 1007 770.429 1007 755L1007 712L1007 320L1007 252C1007 231.111 1009.04 208.373 998.286 189.424C994.356 182.503 988.39 176.543 982.482 171.279C974.259 163.953 961.968 157.242 951 155.264C937.498 152.829 921.724 155 908 155L760 155L290 155L146 155L102 155C95.0248 155 86.7516 153.799 80 155.728z"/>
<path style="fill:#da3a2c; stroke:none;" d="M900 335L900 716L900 822L900 852C900 855.652 898.952 861.326 900.603 864.682C902.614 868.768 909.583 866.325 913 866.089C926.234 865.178 939.124 863.008 952 860.117C958.57 858.641 964.498 856.36 970.385 853.072C981.443 846.896 992.014 836.894 997.024 825.004C1002.06 813.059 1002 799.729 1002 787L1002 747C1002.9 750.041 1002.99 752.831 1003 756C1005.14 750.89 1004.99 743.546 1005 738L1005 711L1005 612C1005 556.326 1004.66 500.594 1004 445C1003.71 420.011 1004.6 394.982 1003.99 370C1003.09 333.341 1002 296.766 1002 260L1005 260C1005 232.563 1007.11 199.185 985.957 178.043C979.748 171.836 970.994 166.672 963 163.107C955.508 159.765 948.038 157.498 940 156L941 159C926.231 166.316 912.465 178.049 899 187.576C885.574 197.075 871.593 205.71 858 214.789C850.879 219.545 844.873 225.557 837.999 230.575C831.223 235.521 823.867 239.475 817.039 244.245C812.092 247.702 807.913 252.264 803 255.849C785.249 268.8 766.965 281.132 749.17 293.87C705.621 325.043 663.333 358.144 619.039 388.259C615.733 390.507 613.143 393.655 609.985 396.102C600.889 403.15 591.368 409.878 582 416.573C571.106 424.358 558.645 430.807 548.17 438.941C540.86 444.617 533.51 449.921 526 455.373C523.067 457.503 518.759 461.26 514.845 461.031C508.719 460.672 503.01 453.487 497.996 450.569C488.396 444.98 479.904 438.049 471 431.466C462.239 424.99 452.768 419.436 444 412.873C414.824 391.037 384.688 370.22 355 349.09C327.106 329.237 299.906 308.543 272 288.699C227.073 256.752 183.385 223.081 138 191.809C126.811 184.099 116.253 175.48 105 167.836C100.424 164.728 94.2627 162.034 94 156C82.1352 158.211 70.7833 161.334 60 167.019C44.5949 175.14 31.7333 190.595 28.3758 208C26.1234 219.676 27.2753 232.165 26.9853 244C26.5449 261.979 26 279.954 26 298C26 436.375 27 574.679 27 713L27 774C27 787.148 26.0113 801.054 28.6659 814C32.2526 831.492 44.2157 846.624 60.0039 854.688C69.3971 859.485 80.6611 861.951 91 863.674C99.465 865.085 108.436 865.313 117 866.169C119.955 866.464 124.646 868.079 127.258 865.972C129.211 864.397 128.965 861.234 128.996 859C129.08 853.002 129 846.998 129 841L129 768C129 737.952 130 708.058 130 678C130 640.038 129.085 601.949 130.015 564C130.902 527.786 131.986 491.219 132 455C132.011 425.982 132.652 396.941 132.996 368C133.083 360.668 132.95 353.333 133.001 346C133.014 344.016 132.556 340.162 134.603 338.921C136.756 337.617 139.358 340.426 141 341.464C147.068 345.304 153.186 348.492 158.715 353.232C168.717 361.807 180.113 368.328 190.996 375.674C203.616 384.193 216.057 393.74 228.09 403.081C250.301 420.324 274.235 435.329 296.91 451.835C342.033 484.68 387.811 517.007 432.91 549.835C451.014 563.013 469.805 575.22 488 588.141C495.619 593.552 505.417 603.85 515 605.357C518.386 605.889 521.446 603.392 524 601.522C529.547 597.459 535.341 593.873 541 589.975C564.826 573.56 587.962 556.103 612 539.999C641.581 520.182 670.147 498.593 699 477.745C739.37 448.576 780.178 419.807 821 391.28C838.892 378.777 856.231 365.513 874 352.859C882.327 346.929 890.94 339.653 900 335z"/>
<path style="fill:#ecebe5; stroke:none;" d="M941 159L941 157C934.132 154.97 926.131 156 919 156L877 156L740 156L291 156L140 156L105 156C102.592 156 94.5115 154.773 93.9213 158.278C93.2586 162.213 101.405 166.074 104 167.836C115.92 175.933 127.078 185.091 139 193.164C167.659 212.57 195.18 233.808 223.004 254.36C242.185 268.528 262.052 281.742 281 296.235C293.587 305.862 306.854 314.44 319.83 323.451C331.501 331.556 342.405 340.838 354 349.09C385.399 371.438 417.164 393.502 448 416.627C454.795 421.723 462.031 425.956 469 430.752C478.803 437.498 487.766 444.982 497.996 451.146C502.882 454.089 508.772 461.255 514.845 461.462C519.07 461.606 523.811 457.688 527 455.373C534.207 450.142 541.31 445.351 548.17 439.681C550.958 437.376 554.276 436.155 557.286 434.215C565.665 428.814 573.842 423.007 582 417.279C591.722 410.454 601.647 403.464 610.961 396.102C614.1 393.62 616.676 390.498 620.011 388.259C687.422 343.007 752.009 293.369 817.039 244.938C822.056 241.201 827.873 238.515 833 234.859C841.942 228.481 849.862 220.911 858.999 214.789C886.407 196.423 914.038 178.162 941 159M128 866L900 866L900 335C894.773 336.808 890.528 340.854 886 343.974C876.17 350.75 866.406 357.428 857 364.789C839.241 378.687 819.996 390.943 801.83 404.333C767.714 429.482 732.35 452.926 698 477.745C668.824 498.826 639.94 520.67 610 540.667C587.316 555.817 565.221 572.036 543 587.859C537.445 591.815 531.463 595.165 526 599.235C523.22 601.307 519.722 604.974 516 604.98C513.438 604.984 511.143 603.064 509 601.897C502.819 598.531 497.753 594.315 492 590.28C472.663 576.717 452.787 564.041 433.83 549.835C422.244 541.153 409.696 533.827 398.039 525.128C352.994 491.514 306.782 459.597 261.83 425.835C249.976 416.932 237.105 409.338 225.424 400.125C203.383 382.74 179.08 368.309 156.91 351.011C151.834 347.049 146.235 344.359 141 340.757C139.287 339.578 136.113 336.392 134.028 338.662C132.308 340.534 133.001 344.69 133 347C132.997 354.315 133.281 361.692 132.961 369C132.086 388.983 132 408.951 132 429C132 439.552 132.83 450.494 131.83 461C128.968 491.081 131.726 521.786 130.985 552C129.389 617.177 129 682.804 129 748L129 826C129 838.812 130.975 853.506 128 866z"/>
</svg>
